<?xml version="1.0" encoding="iso-8859-1"?>
<!-- Uploaded to: SVG Repo, www.svgrepo.com, Generator: SVG Repo Mixer Tools -->
<svg version="1.1" id="Layer_1" xmlns="http://www.w3.org/2000/svg" xmlns:xlink="http://www.w3.org/1999/xlink" 
	 viewBox="0 0 512 512" xml:space="preserve">
<polygon style="fill:#8C695C;" points="102.079,197.211 102.079,231.415 110.63,231.415 110.63,299.825 144.835,299.825 
	144.835,231.415 153.386,231.415 153.386,197.211 "/>
<path style="fill:#D5DCED;" d="M401.37,51.841c-14.322,0-26.923,7.105-34.682,17.916c-2.619-0.501-5.308-0.813-8.073-0.813
	c-12.772,0-24.106,5.713-31.941,14.593c-5.509-3.797-12.169-6.041-19.366-6.041c-18.891,0-34.205,15.314-34.205,34.205
	s15.314,34.205,34.205,34.205c7.197,0,13.856-2.246,19.366-6.041c7.835,8.879,19.168,14.593,31.941,14.593
	c14.322,0,26.923-7.105,34.682-17.916c2.619,0.501,5.308,0.813,8.073,0.813c23.613,0,42.756-19.143,42.756-42.756
	S424.982,51.841,401.37,51.841z"/>
<path style="fill:#E4EAF8;" d="M375.1,62.354c-2.146-11.506-10.534-21.192-21.48-25.335c-6.595-2.496-12.805-2.646-18.539-1.474
	c-8.753-15.773-25.559-26.459-44.876-26.459c-15.177,0-28.771,6.628-38.166,17.102h-30.243c-51.949,0-94.063,42.113-94.063,94.063
	v42.756c0-46.157,33.271-84.471,77.123-92.459c0.855,18.13,15.701,32.601,34.042,32.601c6.219,0,11.971-1.786,16.994-4.688
	c9.094,8.203,21.1,13.239,34.313,13.239s25.217-5.037,34.313-13.239c5.025,2.901,10.776,4.688,16.994,4.688
	C362.558,103.148,379.164,84.139,375.1,62.354z"/>
<g>
	<rect x="110.63" y="231.415" style="fill:#785353;" width="34.205" height="22.447"/>
	<rect x="102.079" y="299.825" style="fill:#785353;" width="51.307" height="59.858"/>
</g>
<polyline style="fill:#9A7863;" points="427.023,505.052 427.023,334.029 358.614,368.234 358.614,334.029 290.205,368.234 
	290.205,334.029 221.795,368.234 221.795,334.029 153.386,368.234 153.386,334.029 84.977,368.234 84.977,505.052 "/>
<rect x="84.977" y="470.848" style="fill:#785353;" width="342.046" height="34.205"/>
<path d="M444.125,495.967h-9.086V332.96c0-2.778-1.439-5.358-3.802-6.82s-5.315-1.594-7.8-0.351l-56.807,28.404V332.96
	c0-2.778-1.439-5.358-3.802-6.82s-5.315-1.594-7.8-0.351l-56.807,28.404V332.96c0-2.778-1.439-5.358-3.802-6.82
	c-2.363-1.461-5.316-1.594-7.8-0.351l-56.807,28.404V332.96c0-2.778-1.439-5.358-3.802-6.82s-5.315-1.594-7.8-0.351l-56.807,28.404
	V332.96v-34.205c0-4.427-3.589-8.017-8.017-8.017h-0.534v-52.376h0.534c4.427,0,8.017-3.589,8.017-8.017v-34.205
	c0-4.427-3.589-8.017-8.017-8.017h-51.307c-4.427,0-8.017,3.589-8.017,8.017v34.205c0,4.427,3.589,8.017,8.017,8.017h0.534v52.376
	h-0.534c-4.427,0-8.017,3.589-8.017,8.017v54.904l-12.671,6.335c-2.716,1.358-4.432,4.133-4.432,7.17v128.802h-9.086
	c-4.427,0-8.017,3.589-8.017,8.017c0,4.427,3.589,8.017,8.017,8.017h376.251c4.427,0,8.017-3.589,8.017-8.017
	C452.142,499.556,448.553,495.967,444.125,495.967z M110.096,204.159h35.273v18.171h-35.273V204.159z M118.647,238.363h18.171
	v52.376h-18.171V238.363z M110.096,306.772h35.273v21.234l-35.273,17.637V306.772z M145.37,345.931v21.234
	c0,2.778,1.439,5.358,3.802,6.82s5.315,1.594,7.8,0.351l56.807-28.404v21.234c0,2.778,1.439,5.358,3.802,6.82s5.316,1.594,7.8,0.351
	l56.807-28.404v21.234c0,2.778,1.439,5.358,3.802,6.82s5.315,1.594,7.8,0.351l56.807-28.404v21.234c0,2.778,1.439,5.358,3.802,6.82
	c2.363,1.461,5.316,1.594,7.8,0.351l56.807-28.404v115.831H92.994v-89.643L145.37,345.931z M92.994,477.795h326.013v18.171H92.994
	V477.795z"/>
<path d="M127.733,169.954c4.427,0,8.017-3.589,8.017-8.017c0-38.809,25.875-72.395,62.585-82.732
	c4.947,17.911,21.271,30.891,40.563,30.891c5.471,0,10.802-1.084,15.913-3.23c3.251,2.427,6.72,4.498,10.351,6.2
	c1.266,22.152,19.683,39.786,42.145,39.786c6.297,0,12.432-1.394,18.055-4.069c9.225,8.084,21.029,12.62,33.252,12.62
	c14.576,0,28.476-6.402,38.079-17.339c1.585,0.158,3.137,0.236,4.676,0.236c27.995,0,50.772-22.777,50.772-50.772
	s-22.777-50.772-50.772-50.772c-7.937,0-15.591,1.827-22.549,5.322c-4.742-8.849-12.652-15.95-22.362-19.625
	c-5.623-2.128-11.421-2.999-17.294-2.604C328.165,9.778,309.874,0,290.205,0c-15.557,0-30.516,6.191-41.592,17.102h-26.817
	c-56.287,0-102.079,45.792-102.079,102.079v42.756C119.716,166.365,123.305,169.954,127.733,169.954z M436.109,93.528
	c0,19.155-15.584,34.739-34.739,34.739c-2.062,0-4.209-0.219-6.566-0.67c-3.066-0.588-6.199,0.661-8.021,3.199
	c-6.549,9.125-17.079,14.573-28.169,14.573c-9.961,0-19.17-4.219-25.929-11.881c-2.684-3.042-7.218-3.598-10.56-1.297
	c-4.392,3.027-9.516,4.626-14.818,4.626c-11.848,0-21.877-7.911-25.099-18.726c2.637,0.36,5.306,0.555,7.996,0.555
	c12.8,0,25.175-4.149,35.394-11.781c5.11,2.146,10.442,3.23,15.913,3.23c12.594,0,24.436-5.561,32.49-15.256
	c7.2-8.668,10.565-19.794,9.522-31.037c5.378-3.277,11.477-5.013,17.846-5.013C420.524,58.789,436.109,74.374,436.109,93.528z
	 M221.795,33.136h30.243c2.278,0,4.448-0.968,5.968-2.665c8.23-9.175,19.966-14.438,32.198-14.438
	c15.713,0,30.222,8.558,37.867,22.332c1.698,3.06,5.187,4.665,8.614,3.965c4.871-0.995,9.482-0.629,14.097,1.117
	c8.519,3.224,14.817,10.623,16.437,19.307c1.489,7.981-0.482,15.737-5.551,21.839c-4.998,6.018-12.345,9.469-20.157,9.469
	c-4.464,0-8.833-1.216-12.986-3.614c-3.01-1.738-6.798-1.337-9.377,0.99c-7.991,7.206-18.271,11.175-28.944,11.175
	s-20.952-3.969-28.943-11.176c-2.58-2.328-6.368-2.728-9.378-0.989c-4.152,2.398-8.52,3.614-12.985,3.614
	c-13.938,0-25.374-10.965-26.034-24.963c-0.109-2.309-1.209-4.458-3.019-5.897c-1.81-1.439-4.154-2.027-6.426-1.612
	c-28.036,5.107-51.631,21.367-66.549,43.702C143.528,64.425,179.076,33.136,221.795,33.136z"/>
<path d="M341.511,409.386h34.205c4.427,0,8.017-3.589,8.017-8.017c0-4.427-3.589-8.017-8.017-8.017h-34.205
	c-4.427,0-8.017,3.589-8.017,8.017C333.495,405.797,337.084,409.386,341.511,409.386z"/>
<path d="M341.511,443.591h34.205c4.427,0,8.017-3.589,8.017-8.017c0-4.427-3.589-8.017-8.017-8.017h-34.205
	c-4.427,0-8.017,3.589-8.017,8.017C333.495,440.001,337.084,443.591,341.511,443.591z"/>
<path d="M273.102,409.386h34.205c4.427,0,8.017-3.589,8.017-8.017c0-4.427-3.589-8.017-8.017-8.017h-34.205
	c-4.427,0-8.017,3.589-8.017,8.017C265.086,405.797,268.675,409.386,273.102,409.386z"/>
<path d="M273.102,443.591h34.205c4.427,0,8.017-3.589,8.017-8.017c0-4.427-3.589-8.017-8.017-8.017h-34.205
	c-4.427,0-8.017,3.589-8.017,8.017C265.086,440.001,268.675,443.591,273.102,443.591z"/>
<path d="M204.693,409.386h34.205c4.427,0,8.017-3.589,8.017-8.017c0-4.427-3.589-8.017-8.017-8.017h-34.205
	c-4.427,0-8.017,3.589-8.017,8.017C196.676,405.797,200.266,409.386,204.693,409.386z"/>
<path d="M204.693,443.591h34.205c4.427,0,8.017-3.589,8.017-8.017c0-4.427-3.589-8.017-8.017-8.017h-34.205
	c-4.427,0-8.017,3.589-8.017,8.017C196.676,440.001,200.266,443.591,204.693,443.591z"/>
<path d="M136.284,409.386h34.205c4.427,0,8.017-3.589,8.017-8.017c0-4.427-3.589-8.017-8.017-8.017h-34.205
	c-4.427,0-8.017,3.589-8.017,8.017C128.267,405.797,131.857,409.386,136.284,409.386z"/>
<path d="M136.284,443.591h34.205c4.427,0,8.017-3.589,8.017-8.017c0-4.427-3.589-8.017-8.017-8.017h-34.205
	c-4.427,0-8.017,3.589-8.017,8.017C128.267,440.001,131.857,443.591,136.284,443.591z"/>
</svg>